# xmcd CD database file
#
# Track frame offsets:
#	150
#	15937
#	33542
#	48747
#	62547
#	81247
#	93480
#	105670
#	118785
#	132837
#
# Disc length: 1949 seconds
#
# Revision: 0
# Processed by: cddbd v1.4PL0 Copyright (c) Steve Scherf et al.
# Submitted via: CDex 1.50Beta6
#
DISCID=7e079b0a
DTITLE=Eddy Raven - Right Hand Man
DYEAR=1987
DGENRE=Country
TTITLE0=Shine, Shine, Shine
TTITLE1=The Best of Them
TTITLE2=Sometimes a Lady
TTITLE3=Right Hand Man
TTITLE4=Neon Row
TTITLE5=You're Never Too Old for Young Love
TTITLE6=Crime of the Century
TTITLE7=Other Than Montreal
TTITLE8=Stay With Me
TTITLE9=But She Loves Me
EXTD=YEAR: 1987
EXTT0=
EXTT1=
EXTT2=
EXTT3=
EXTT4=
EXTT5=
EXTT6=
EXTT7=
EXTT8=
EXTT9=
PLAYORDER=
